# xmcd
# 
# Track frame offsets:
#     183
#     21503
#     50273
#     80365
# 
# Disc length: 1290
# 
# Revision: 4
# Processed by: cddbd v1.5.2PL0 Copyright (c) Steve Scherf et al.
# Submitted via: fre:ac v1.0.31
# 
DISCID=28050804
DTITLE=Lionel Richie - Do It To Me
DYEAR=1992
DGENRE=Blues
TTITLE0=Do It To Me [Singel Radio Edit]
TTITLE1=Do It To Me [Instrumental]
TTITLE2=Do It To Me [Extended Version]
TTITLE3=Ballerina Girl
EXTD=
EXTT0=
EXTT1=
EXTT2=
EXTT3=
PLAYORDER=
